<svg xmlns:xlink="http://www.w3.org/1999/xlink" width="34.497ex" height="19.509ex" style="font-size: 15px; vertical-align: -17.505ex;" viewBox="0 -863.1 14853 8399.8" role="img" focusable="false" xmlns="http://www.w3.org/2000/svg">
<defs>
<path stroke-width="1" id="E1-MJMAIN-70" d="M36 -148H50Q89 -148 97 -134V-126Q97 -119 97 -107T97 -77T98 -38T98 6T98 55T98 106Q98 140 98 177T98 243T98 296T97 335T97 351Q94 370 83 376T38 385H20V408Q20 431 22 431L32 432Q42 433 61 434T98 436Q115 437 135 438T165 441T176 442H179V416L180 390L188 397Q247 441 326 441Q407 441 464 377T522 216Q522 115 457 52T310 -11Q242 -11 190 33L182 40V-45V-101Q182 -128 184 -134T195 -145Q216 -148 244 -148H260V-194H252L228 -193Q205 -192 178 -192T140 -191Q37 -191 28 -194H20V-148H36ZM424 218Q424 292 390 347T305 402Q234 402 182 337V98Q222 26 294 26Q345 26 384 80T424 218Z"></path>
<path stroke-width="1" id="E1-MJMAIN-61" d="M137 305T115 305T78 320T63 359Q63 394 97 421T218 448Q291 448 336 416T396 340Q401 326 401 309T402 194V124Q402 76 407 58T428 40Q443 40 448 56T453 109V145H493V106Q492 66 490 59Q481 29 455 12T400 -6T353 12T329 54V58L327 55Q325 52 322 49T314 40T302 29T287 17T269 6T247 -2T221 -8T190 -11Q130 -11 82 20T34 107Q34 128 41 147T68 188T116 225T194 253T304 268H318V290Q318 324 312 340Q290 411 215 411Q197 411 181 410T156 406T148 403Q170 388 170 359Q170 334 154 320ZM126 106Q126 75 150 51T209 26Q247 26 276 49T315 109Q317 116 318 175Q318 233 317 233Q309 233 296 232T251 223T193 203T147 166T126 106Z"></path>
<path stroke-width="1" id="E1-MJMAIN-74" d="M27 422Q80 426 109 478T141 600V615H181V431H316V385H181V241Q182 116 182 100T189 68Q203 29 238 29Q282 29 292 100Q293 108 293 146V181H333V146V134Q333 57 291 17Q264 -10 221 -10Q187 -10 162 2T124 33T105 68T98 100Q97 107 97 248V385H18V422H27Z"></path>
<path stroke-width="1" id="E1-MJMAIN-68" d="M41 46H55Q94 46 102 60V68Q102 77 102 91T102 124T102 167T103 217T103 272T103 329Q103 366 103 407T103 482T102 542T102 586T102 603Q99 622 88 628T43 637H25V660Q25 683 27 683L37 684Q47 685 66 686T103 688Q120 689 140 690T170 693T181 694H184V367Q244 442 328 442Q451 442 463 329Q464 322 464 190V104Q464 66 466 59T477 49Q498 46 526 46H542V0H534L510 1Q487 2 460 2T422 3Q319 3 310 0H302V46H318Q379 46 379 62Q380 64 380 200Q379 335 378 343Q372 371 358 385T334 402T308 404Q263 404 229 370Q202 343 195 315T187 232V168V108Q187 78 188 68T191 55T200 49Q221 46 249 46H265V0H257L234 1Q210 2 183 2T145 3Q42 3 33 0H25V46H41Z"></path>
<path stroke-width="1" id="E1-MJMAIN-28" d="M94 250Q94 319 104 381T127 488T164 576T202 643T244 695T277 729T302 750H315H319Q333 750 333 741Q333 738 316 720T275 667T226 581T184 443T167 250T184 58T225 -81T274 -167T316 -220T333 -241Q333 -250 318 -250H315H302L274 -226Q180 -141 137 -14T94 250Z"></path>
<path stroke-width="1" id="E1-MJMAIN-31" d="M213 578L200 573Q186 568 160 563T102 556H83V602H102Q149 604 189 617T245 641T273 663Q275 666 285 666Q294 666 302 660V361L303 61Q310 54 315 52T339 48T401 46H427V0H416Q395 3 257 3Q121 3 100 0H88V46H114Q136 46 152 46T177 47T193 50T201 52T207 57T213 61V578Z"></path>
<path stroke-width="1" id="E1-MJMAIN-2C" d="M78 35T78 60T94 103T137 121Q165 121 187 96T210 8Q210 -27 201 -60T180 -117T154 -158T130 -185T117 -194Q113 -194 104 -185T95 -172Q95 -168 106 -156T131 -126T157 -76T173 -3V9L172 8Q170 7 167 6T161 3T152 1T140 0Q113 0 96 17Z"></path>
<path stroke-width="1" id="E1-MJMAIN-32" d="M109 429Q82 429 66 447T50 491Q50 562 103 614T235 666Q326 666 387 610T449 465Q449 422 429 383T381 315T301 241Q265 210 201 149L142 93L218 92Q375 92 385 97Q392 99 409 186V189H449V186Q448 183 436 95T421 3V0H50V19V31Q50 38 56 46T86 81Q115 113 136 137Q145 147 170 174T204 211T233 244T261 278T284 308T305 340T320 369T333 401T340 431T343 464Q343 527 309 573T212 619Q179 619 154 602T119 569T109 550Q109 549 114 549Q132 549 151 535T170 489Q170 464 154 447T109 429Z"></path>
<path stroke-width="1" id="E1-MJMAIN-29" d="M60 749L64 750Q69 750 74 750H86L114 726Q208 641 251 514T294 250Q294 182 284 119T261 12T224 -76T186 -143T145 -194T113 -227T90 -246Q87 -249 86 -250H74Q66 -250 63 -250T58 -247T55 -238Q56 -237 66 -225Q221 -64 221 250T66 725Q56 737 55 738Q55 746 60 749Z"></path>
<path stroke-width="1" id="E1-MJMAIN-3D" d="M56 347Q56 360 70 367H707Q722 359 722 347Q722 336 708 328L390 327H72Q56 332 56 347ZM56 153Q56 168 72 173H708Q722 163 722 153Q722 140 707 133H70Q56 140 56 153Z"></path>
<path stroke-width="1" id="E1-MJMATHI-41" d="M208 74Q208 50 254 46Q272 46 272 35Q272 34 270 22Q267 8 264 4T251 0Q249 0 239 0T205 1T141 2Q70 2 50 0H42Q35 7 35 11Q37 38 48 46H62Q132 49 164 96Q170 102 345 401T523 704Q530 716 547 716H555H572Q578 707 578 706L606 383Q634 60 636 57Q641 46 701 46Q726 46 726 36Q726 34 723 22Q720 7 718 4T704 0Q701 0 690 0T651 1T578 2Q484 2 455 0H443Q437 6 437 9T439 27Q443 40 445 43L449 46H469Q523 49 533 63L521 213H283L249 155Q208 86 208 74ZM516 260Q516 271 504 416T490 562L463 519Q447 492 400 412L310 260L413 259Q516 259 516 260Z"></path>
<path stroke-width="1" id="E1-MJMAIN-78" d="M201 0Q189 3 102 3Q26 3 17 0H11V46H25Q48 47 67 52T96 61T121 78T139 96T160 122T180 150L226 210L168 288Q159 301 149 315T133 336T122 351T113 363T107 370T100 376T94 379T88 381T80 383Q74 383 44 385H16V431H23Q59 429 126 429Q219 429 229 431H237V385Q201 381 201 369Q201 367 211 353T239 315T268 274L272 270L297 304Q329 345 329 358Q329 364 327 369T322 376T317 380T310 384L307 385H302V431H309Q324 428 408 428Q487 428 493 431H499V385H492Q443 385 411 368Q394 360 377 341T312 257L296 236L358 151Q424 61 429 57T446 50Q464 46 499 46H516V0H510H502Q494 1 482 1T457 2T432 2T414 3Q403 3 377 3T327 1L304 0H295V46H298Q309 46 320 51T331 63Q331 65 291 120L250 175Q249 174 219 133T185 88Q181 83 181 74Q181 63 188 55T206 46Q208 46 208 23V0H201Z"></path>
<path stroke-width="1" id="E1-MJMAIN-6F" d="M28 214Q28 309 93 378T250 448Q340 448 405 380T471 215Q471 120 407 55T250 -10Q153 -10 91 57T28 214ZM250 30Q372 30 372 193V225V250Q372 272 371 288T364 326T348 362T317 390T268 410Q263 411 252 411Q222 411 195 399Q152 377 139 338T126 246V226Q126 130 145 91Q177 30 250 30Z"></path>
<path stroke-width="1" id="E1-MJMAIN-72" d="M36 46H50Q89 46 97 60V68Q97 77 97 91T98 122T98 161T98 203Q98 234 98 269T98 328L97 351Q94 370 83 376T38 385H20V408Q20 431 22 431L32 432Q42 433 60 434T96 436Q112 437 131 438T160 441T171 442H174V373Q213 441 271 441H277Q322 441 343 419T364 373Q364 352 351 337T313 322Q288 322 276 338T263 372Q263 381 265 388T270 400T273 405Q271 407 250 401Q234 393 226 386Q179 341 179 207V154Q179 141 179 127T179 101T180 81T180 66V61Q181 59 183 57T188 54T193 51T200 49T207 48T216 47T225 47T235 46T245 46H276V0H267Q249 3 140 3Q37 3 28 0H20V46H36Z"></path>
<path stroke-width="1" id="E1-MJMAIN-33" d="M127 463Q100 463 85 480T69 524Q69 579 117 622T233 665Q268 665 277 664Q351 652 390 611T430 522Q430 470 396 421T302 350L299 348Q299 347 308 345T337 336T375 315Q457 262 457 175Q457 96 395 37T238 -22Q158 -22 100 21T42 130Q42 158 60 175T105 193Q133 193 151 175T169 130Q169 119 166 110T159 94T148 82T136 74T126 70T118 67L114 66Q165 21 238 21Q293 21 321 74Q338 107 338 175V195Q338 290 274 322Q259 328 213 329L171 330L168 332Q166 335 166 348Q166 366 174 366Q202 366 232 371Q266 376 294 413T322 525V533Q322 590 287 612Q265 626 240 626Q208 626 181 615T143 592T132 580H135Q138 579 143 578T153 573T165 566T175 555T183 540T186 520Q186 498 172 481T127 463Z"></path>
<path stroke-width="1" id="E1-MJMAIN-34" d="M462 0Q444 3 333 3Q217 3 199 0H190V46H221Q241 46 248 46T265 48T279 53T286 61Q287 63 287 115V165H28V211L179 442Q332 674 334 675Q336 677 355 677H373L379 671V211H471V165H379V114Q379 73 379 66T385 54Q393 47 442 46H471V0H462ZM293 211V545L74 212L183 211H293Z"></path>
<path stroke-width="1" id="E1-MJMAIN-35" d="M164 157Q164 133 148 117T109 101H102Q148 22 224 22Q294 22 326 82Q345 115 345 210Q345 313 318 349Q292 382 260 382H254Q176 382 136 314Q132 307 129 306T114 304Q97 304 95 310Q93 314 93 485V614Q93 664 98 664Q100 666 102 666Q103 666 123 658T178 642T253 634Q324 634 389 662Q397 666 402 666Q410 666 410 648V635Q328 538 205 538Q174 538 149 544L139 546V374Q158 388 169 396T205 412T256 420Q337 420 393 355T449 201Q449 109 385 44T229 -22Q148 -22 99 32T50 154Q50 178 61 192T84 210T107 214Q132 214 148 197T164 157Z"></path>
<path stroke-width="1" id="E1-MJMAIN-30" d="M96 585Q152 666 249 666Q297 666 345 640T423 548Q460 465 460 320Q460 165 417 83Q397 41 362 16T301 -15T250 -22Q224 -22 198 -16T137 16T82 83Q39 165 39 320Q39 494 96 585ZM321 597Q291 629 250 629Q208 629 178 597Q153 571 145 525T137 333Q137 175 145 125T181 46Q209 16 250 16Q290 16 318 46Q347 76 354 130T362 333Q362 478 354 524T321 597Z"></path>
<path stroke-width="1" id="E1-MJMAIN-37" d="M55 458Q56 460 72 567L88 674Q88 676 108 676H128V672Q128 662 143 655T195 646T364 644H485V605L417 512Q408 500 387 472T360 435T339 403T319 367T305 330T292 284T284 230T278 162T275 80Q275 66 275 52T274 28V19Q270 2 255 -10T221 -22Q210 -22 200 -19T179 0T168 40Q168 198 265 368Q285 400 349 489L395 552H302Q128 552 119 546Q113 543 108 522T98 479L95 458V455H55V458Z"></path>
<path stroke-width="1" id="E1-MJMAIN-36" d="M42 313Q42 476 123 571T303 666Q372 666 402 630T432 550Q432 525 418 510T379 495Q356 495 341 509T326 548Q326 592 373 601Q351 623 311 626Q240 626 194 566Q147 500 147 364L148 360Q153 366 156 373Q197 433 263 433H267Q313 433 348 414Q372 400 396 374T435 317Q456 268 456 210V192Q456 169 451 149Q440 90 387 34T253 -22Q225 -22 199 -14T143 16T92 75T56 172T42 313ZM257 397Q227 397 205 380T171 335T154 278T148 216Q148 133 160 97T198 39Q222 21 251 21Q302 21 329 59Q342 77 347 104T352 209Q352 289 347 316T329 361Q302 397 257 397Z"></path>
</defs>
<g stroke="currentColor" fill="currentColor" stroke-width="0" transform="matrix(1 0 0 -1 0 0)">
 <use xlink:href="#E1-MJMAIN-70" x="0" y="0"></use>
 <use xlink:href="#E1-MJMAIN-61" x="556" y="0"></use>
 <use xlink:href="#E1-MJMAIN-74" x="1057" y="0"></use>
 <use xlink:href="#E1-MJMAIN-68" x="1446" y="0"></use>
 <use xlink:href="#E1-MJMAIN-28" x="2003" y="0"></use>
 <use xlink:href="#E1-MJMAIN-31" x="2392" y="0"></use>
 <use xlink:href="#E1-MJMAIN-2C" x="2893" y="0"></use>
 <use xlink:href="#E1-MJMAIN-32" x="3338" y="0"></use>
 <use xlink:href="#E1-MJMAIN-29" x="3838" y="0"></use>
 <use xlink:href="#E1-MJMAIN-3D" x="4505" y="0"></use>
<g transform="translate(5562,0)">
 <use xlink:href="#E1-MJMATHI-41" x="0" y="0"></use>
 <use transform="scale(0.707)" xlink:href="#E1-MJMAIN-31" x="1061" y="-213"></use>
</g>
<g transform="translate(7016,0)">
 <use xlink:href="#E1-MJMAIN-78" x="0" y="0"></use>
 <use xlink:href="#E1-MJMAIN-6F" x="528" y="0"></use>
 <use xlink:href="#E1-MJMAIN-72" x="1029" y="0"></use>
</g>
<g transform="translate(8688,0)">
 <use xlink:href="#E1-MJMATHI-41" x="0" y="0"></use>
 <use transform="scale(0.707)" xlink:href="#E1-MJMAIN-32" x="1061" y="-213"></use>
</g>
 <use xlink:href="#E1-MJMAIN-3D" x="10170" y="0"></use>
 <use xlink:href="#E1-MJMAIN-33" x="11226" y="0"></use>
<g transform="translate(0,-1433)">
 <use xlink:href="#E1-MJMAIN-70" x="0" y="0"></use>
 <use xlink:href="#E1-MJMAIN-61" x="556" y="0"></use>
 <use xlink:href="#E1-MJMAIN-74" x="1057" y="0"></use>
 <use xlink:href="#E1-MJMAIN-68" x="1446" y="0"></use>
 <use xlink:href="#E1-MJMAIN-28" x="2003" y="0"></use>
 <use xlink:href="#E1-MJMAIN-31" x="2392" y="0"></use>
 <use xlink:href="#E1-MJMAIN-2C" x="2893" y="0"></use>
 <use xlink:href="#E1-MJMAIN-33" x="3338" y="0"></use>
 <use xlink:href="#E1-MJMAIN-29" x="3838" y="0"></use>
 <use xlink:href="#E1-MJMAIN-3D" x="4505" y="0"></use>
<g transform="translate(5562,0)">
 <use xlink:href="#E1-MJMATHI-41" x="0" y="0"></use>
 <use transform="scale(0.707)" xlink:href="#E1-MJMAIN-31" x="1061" y="-213"></use>
</g>
<g transform="translate(7016,0)">
 <use xlink:href="#E1-MJMAIN-78" x="0" y="0"></use>
 <use xlink:href="#E1-MJMAIN-6F" x="528" y="0"></use>
 <use xlink:href="#E1-MJMAIN-72" x="1029" y="0"></use>
</g>
<g transform="translate(8688,0)">
 <use xlink:href="#E1-MJMATHI-41" x="0" y="0"></use>
 <use transform="scale(0.707)" xlink:href="#E1-MJMAIN-33" x="1061" y="-213"></use>
</g>
 <use xlink:href="#E1-MJMAIN-3D" x="10170" y="0"></use>
 <use xlink:href="#E1-MJMAIN-32" x="11226" y="0"></use>
</g>
<g transform="translate(0,-2866)">
 <use xlink:href="#E1-MJMAIN-70" x="0" y="0"></use>
 <use xlink:href="#E1-MJMAIN-61" x="556" y="0"></use>
 <use xlink:href="#E1-MJMAIN-74" x="1057" y="0"></use>
 <use xlink:href="#E1-MJMAIN-68" x="1446" y="0"></use>
 <use xlink:href="#E1-MJMAIN-28" x="2003" y="0"></use>
 <use xlink:href="#E1-MJMAIN-31" x="2392" y="0"></use>
 <use xlink:href="#E1-MJMAIN-2C" x="2893" y="0"></use>
 <use xlink:href="#E1-MJMAIN-34" x="3338" y="0"></use>
 <use xlink:href="#E1-MJMAIN-29" x="3838" y="0"></use>
 <use xlink:href="#E1-MJMAIN-3D" x="4505" y="0"></use>
<g transform="translate(5562,0)">
 <use xlink:href="#E1-MJMATHI-41" x="0" y="0"></use>
 <use transform="scale(0.707)" xlink:href="#E1-MJMAIN-31" x="1061" y="-213"></use>
</g>
<g transform="translate(7016,0)">
 <use xlink:href="#E1-MJMAIN-78" x="0" y="0"></use>
 <use xlink:href="#E1-MJMAIN-6F" x="528" y="0"></use>
 <use xlink:href="#E1-MJMAIN-72" x="1029" y="0"></use>
</g>
<g transform="translate(8688,0)">
 <use xlink:href="#E1-MJMATHI-41" x="0" y="0"></use>
 <use transform="scale(0.707)" xlink:href="#E1-MJMAIN-34" x="1061" y="-213"></use>
</g>
 <use xlink:href="#E1-MJMAIN-3D" x="10170" y="0"></use>
 <use xlink:href="#E1-MJMAIN-35" x="11226" y="0"></use>
</g>
<g transform="translate(0,-4298)">
 <use xlink:href="#E1-MJMAIN-70" x="0" y="0"></use>
 <use xlink:href="#E1-MJMAIN-61" x="556" y="0"></use>
 <use xlink:href="#E1-MJMAIN-74" x="1057" y="0"></use>
 <use xlink:href="#E1-MJMAIN-68" x="1446" y="0"></use>
 <use xlink:href="#E1-MJMAIN-28" x="2003" y="0"></use>
 <use xlink:href="#E1-MJMAIN-32" x="2392" y="0"></use>
 <use xlink:href="#E1-MJMAIN-2C" x="2893" y="0"></use>
 <use xlink:href="#E1-MJMAIN-33" x="3338" y="0"></use>
 <use xlink:href="#E1-MJMAIN-29" x="3838" y="0"></use>
 <use xlink:href="#E1-MJMAIN-3D" x="4505" y="0"></use>
<g transform="translate(5562,0)">
 <use xlink:href="#E1-MJMATHI-41" x="0" y="0"></use>
 <use transform="scale(0.707)" xlink:href="#E1-MJMAIN-32" x="1061" y="-213"></use>
</g>
<g transform="translate(7016,0)">
 <use xlink:href="#E1-MJMAIN-78" x="0" y="0"></use>
 <use xlink:href="#E1-MJMAIN-6F" x="528" y="0"></use>
 <use xlink:href="#E1-MJMAIN-72" x="1029" y="0"></use>
</g>
<g transform="translate(8688,0)">
 <use xlink:href="#E1-MJMATHI-41" x="0" y="0"></use>
 <use transform="scale(0.707)" xlink:href="#E1-MJMAIN-31" x="1061" y="-213"></use>
</g>
<g transform="translate(10142,0)">
 <use xlink:href="#E1-MJMAIN-78" x="0" y="0"></use>
 <use xlink:href="#E1-MJMAIN-6F" x="528" y="0"></use>
 <use xlink:href="#E1-MJMAIN-72" x="1029" y="0"></use>
</g>
<g transform="translate(11814,0)">
 <use xlink:href="#E1-MJMATHI-41" x="0" y="0"></use>
 <use transform="scale(0.707)" xlink:href="#E1-MJMAIN-33" x="1061" y="-213"></use>
</g>
 <use xlink:href="#E1-MJMAIN-3D" x="13296" y="0"></use>
 <use xlink:href="#E1-MJMAIN-30" x="14352" y="0"></use>
</g>
<g transform="translate(0,-5731)">
 <use xlink:href="#E1-MJMAIN-70" x="0" y="0"></use>
 <use xlink:href="#E1-MJMAIN-61" x="556" y="0"></use>
 <use xlink:href="#E1-MJMAIN-74" x="1057" y="0"></use>
 <use xlink:href="#E1-MJMAIN-68" x="1446" y="0"></use>
 <use xlink:href="#E1-MJMAIN-28" x="2003" y="0"></use>
 <use xlink:href="#E1-MJMAIN-32" x="2392" y="0"></use>
 <use xlink:href="#E1-MJMAIN-2C" x="2893" y="0"></use>
 <use xlink:href="#E1-MJMAIN-34" x="3338" y="0"></use>
 <use xlink:href="#E1-MJMAIN-29" x="3838" y="0"></use>
 <use xlink:href="#E1-MJMAIN-3D" x="4505" y="0"></use>
<g transform="translate(5562,0)">
 <use xlink:href="#E1-MJMATHI-41" x="0" y="0"></use>
 <use transform="scale(0.707)" xlink:href="#E1-MJMAIN-32" x="1061" y="-213"></use>
</g>
<g transform="translate(7016,0)">
 <use xlink:href="#E1-MJMAIN-78" x="0" y="0"></use>
 <use xlink:href="#E1-MJMAIN-6F" x="528" y="0"></use>
 <use xlink:href="#E1-MJMAIN-72" x="1029" y="0"></use>
</g>
<g transform="translate(8688,0)">
 <use xlink:href="#E1-MJMATHI-41" x="0" y="0"></use>
 <use transform="scale(0.707)" xlink:href="#E1-MJMAIN-31" x="1061" y="-213"></use>
</g>
<g transform="translate(10142,0)">
 <use xlink:href="#E1-MJMAIN-78" x="0" y="0"></use>
 <use xlink:href="#E1-MJMAIN-6F" x="528" y="0"></use>
 <use xlink:href="#E1-MJMAIN-72" x="1029" y="0"></use>
</g>
<g transform="translate(11814,0)">
 <use xlink:href="#E1-MJMATHI-41" x="0" y="0"></use>
 <use transform="scale(0.707)" xlink:href="#E1-MJMAIN-34" x="1061" y="-213"></use>
</g>
 <use xlink:href="#E1-MJMAIN-3D" x="13296" y="0"></use>
 <use xlink:href="#E1-MJMAIN-37" x="14352" y="0"></use>
</g>
<g transform="translate(0,-7163)">
 <use xlink:href="#E1-MJMAIN-70" x="0" y="0"></use>
 <use xlink:href="#E1-MJMAIN-61" x="556" y="0"></use>
 <use xlink:href="#E1-MJMAIN-74" x="1057" y="0"></use>
 <use xlink:href="#E1-MJMAIN-68" x="1446" y="0"></use>
 <use xlink:href="#E1-MJMAIN-28" x="2003" y="0"></use>
 <use xlink:href="#E1-MJMAIN-33" x="2392" y="0"></use>
 <use xlink:href="#E1-MJMAIN-2C" x="2893" y="0"></use>
 <use xlink:href="#E1-MJMAIN-34" x="3338" y="0"></use>
 <use xlink:href="#E1-MJMAIN-29" x="3838" y="0"></use>
 <use xlink:href="#E1-MJMAIN-3D" x="4505" y="0"></use>
<g transform="translate(5562,0)">
 <use xlink:href="#E1-MJMATHI-41" x="0" y="0"></use>
 <use transform="scale(0.707)" xlink:href="#E1-MJMAIN-33" x="1061" y="-213"></use>
</g>
<g transform="translate(7016,0)">
 <use xlink:href="#E1-MJMAIN-78" x="0" y="0"></use>
 <use xlink:href="#E1-MJMAIN-6F" x="528" y="0"></use>
 <use xlink:href="#E1-MJMAIN-72" x="1029" y="0"></use>
</g>
<g transform="translate(8688,0)">
 <use xlink:href="#E1-MJMATHI-41" x="0" y="0"></use>
 <use transform="scale(0.707)" xlink:href="#E1-MJMAIN-31" x="1061" y="-213"></use>
</g>
<g transform="translate(10142,0)">
 <use xlink:href="#E1-MJMAIN-78" x="0" y="0"></use>
 <use xlink:href="#E1-MJMAIN-6F" x="528" y="0"></use>
 <use xlink:href="#E1-MJMAIN-72" x="1029" y="0"></use>
</g>
<g transform="translate(11814,0)">
 <use xlink:href="#E1-MJMATHI-41" x="0" y="0"></use>
 <use transform="scale(0.707)" xlink:href="#E1-MJMAIN-34" x="1061" y="-213"></use>
</g>
 <use xlink:href="#E1-MJMAIN-3D" x="13296" y="0"></use>
 <use xlink:href="#E1-MJMAIN-36" x="14352" y="0"></use>
</g>
</g>
</svg>